<svg xmlns="http://www.w3.org/2000/svg" width="1024" height="1024" viewBox="0 0 1024 1024">
<defs><linearGradient id="bg" x1="0" y1="0" x2="0.3" y2="1">
<stop offset="0" stop-color="#1d2c4d"/><stop offset="1" stop-color="#0b1224"/></linearGradient></defs>
<rect width="1024" height="1024" rx="225.28" fill="url(#bg)"/>
<g fill="none" stroke-linecap="round" stroke-linejoin="round">
  <path d="M 307.2 860.2 Q 820.1 701.5 675.8 184.3" stroke="#5a6c92" stroke-width="14"/>
  <line x1="307.2" y1="860.2" x2="675.8" y2="184.3" stroke="#3a4a6b" stroke-width="12"/>
  <path d="M 500.48 965.58 L 500.80 958.15 L 500.36 950.34 L 499.18 942.20 L 497.27 933.73 L 494.65 924.97 L 491.33 915.95 L 487.34 906.69 L 482.70 897.23 L 477.43 887.59 L 471.58 877.79 L 465.16 867.89 L 458.22 857.90 L 450.78 847.85 L 442.89 837.78 L 434.58 827.72 L 425.89 817.70 L 416.88 807.74 L 407.56 797.89 L 398.00 788.17 L 388.24 778.60 L 378.31 769.22 L 368.27 760.06 L 358.16 751.13 L 348.03 742.47 L 337.92 734.10 L 327.88 726.04 L 317.94 718.31 L 308.16 710.94 L 298.58 703.93 L 289.24 697.32 L 280.17 691.10 L 271.43 685.30 L 263.04 679.93 L 255.04 675.00 L 247.47 670.51 L 240.36 666.47 L 233.74 662.89 L 227.64 659.77 L 222.08 657.10 L 217.08 654.90 L 212.68 653.14 L 208.88 651.84 L 205.71 650.99 L 203.17 650.56 L 201.29 650.57 L 200.06 650.98 L 199.49 651.80 L 199.59 653.00 L 200.35 654.58 L 201.78 656.50 L 203.86 658.76 L 206.60 661.34 L 209.98 664.20 L 213.98 667.34 L 218.60 670.72 L 223.81 674.32 L 229.61 678.13 L 235.95 682.10 L 242.83 686.23 L 250.21 690.47 L 258.06 694.81 L 266.37 699.22 L 275.09 703.66 L 284.20 708.12 L 293.65 712.57 L 303.42 716.98 L 313.47 721.32 L 323.76 725.57 L 334.26 729.70 L 344.92 733.69 L 355.71 737.51 L 366.58 741.15 L 377.51 744.57 L 388.45 747.77 L 399.36 750.71 L 410.20 753.38 L 420.94 755.76 L 431.54 757.84 L 441.96 759.59 L 452.17 761.01 L 462.13 762.09 L 471.81 762.81 L 481.18 763.16 L 490.20 763.13 L 498.86 762.73 L 507.12 761.94 L 514.95 760.76 L 522.34 759.20 L 529.26 757.24 L 535.69 754.89 L 541.62 752.16 L 547.03 749.05 L 551.91 745.56 L 556.24 741.71 L 560.02 737.50 L 563.25 732.94 L 565.91 728.05 L 568.01 722.83 L 569.55 717.31 L 570.53 711.49 L 570.95 705.39 L 570.83 699.04 L 570.17 692.45 L 568.98 685.63 L 567.29 678.61 L 565.09 671.41 L 562.42 664.05 L 559.28 656.55 L 555.71 648.94 L 551.72 641.23 L 547.34 633.45 L 542.59 625.62 L 537.50 617.76 L 532.09 609.90 L 526.41 602.05 L 520.47 594.25 L 514.30 586.51 L 507.95 578.85 L 501.43 571.30 L 494.79 563.88 L 488.05 556.59 L 481.25 549.48 L 474.42 542.54 L 467.59 535.80 L 460.80 529.28 L 454.07 522.99 L 447.44 516.94 L 440.94 511.16 L 434.60 505.64 L 428.44 500.40 L 422.50 495.45 L 416.80 490.81 L 411.37 486.46 L 406.23 482.43 L 401.40 478.72 L 396.91 475.32 L 392.78 472.25 L 389.03 469.50 L 385.66 467.07 L 382.70 464.95 L 380.16 463.16 L 378.06 461.67 L 376.39 460.49 L 375.17 459.61 L 374.41 459.01 L 374.11 458.70 L 374.26 458.66 L 374.88 458.88 L 375.96 459.34 L 377.49 460.04 L 379.47 460.96 L 381.89 462.08 L 384.75 463.39 L 388.03 464.88 L 391.72 466.52 L 395.81 468.30 L 400.29 470.21 L 405.13 472.22 L 410.31 474.31 L 415.83 476.48 L 421.65 478.69 L 427.76 480.94 L 434.13 483.19 L 440.75 485.45 L 447.58 487.67 L 454.61 489.86 L 461.80 491.99 L 469.13 494.04 L 476.58 496.00 L 484.12 497.85 L 491.72 499.58 L 499.36 501.17 L 507.01 502.61 L 514.65 503.88 L 522.24 504.97 L 529.77 505.87 L 537.20 506.57 L 544.52 507.06 L 551.70 507.33 L 558.72 507.37 L 565.56 507.18 L 572.20 506.74 L 578.61 506.07 L 584.78 505.14 L 590.69 503.96 L 596.32 502.53 L 601.67 500.84 L 606.71 498.90 L 611.43 496.71 L 615.83 494.27 L 619.89 491.59 L 623.61 488.66 L 626.98 485.50 L 630.00 482.10 L 632.66 478.49 L 634.96 474.66 L 636.90 470.63 L 638.48 466.40 L 639.70 461.98 L 640.58 457.39 L 641.11 452.64 L 641.30 447.74 L 641.16 442.69 L 640.69 437.53 L 639.92 432.25 L 638.85 426.87 L 637.50 421.41 L 635.87 415.88 L 633.98 410.29 L 631.86 404.66 L 629.51 399.01 L 626.96 393.34 L 624.21 387.67 L 621.30 382.01 L 618.24 376.39 L 615.04 370.81 L 611.73 365.28 L 608.34 359.82 L 604.87 354.44 L 601.35 349.15 L 597.80 343.97 L 594.23 338.89 L 590.68 333.95 L 587.16 329.13 L 583.68 324.46 L 580.27 319.94 L 576.94 315.57 L 573.72 311.37 L 570.62 307.34 L 567.65 303.48 L 564.83 299.80 L 562.17 296.31 L 559.70 292.99 L 557.42 289.87 L 555.34 286.93 L 553.47 284.18 L 551.83 281.61 L 550.42 279.23 L 549.25 277.03 L 548.32 275.01 L 547.65 273.17 L 547.23 271.50 L 547.07 270.00 L 547.17 268.65 L 547.53 267.46 L 548.16 266.42 L 549.04 265.52 L 550.17 264.75 L 551.56 264.11 L 553.20 263.58 L 555.07 263.15 L 557.18 262.82 L 559.52 262.58 L 562.08 262.42 L 564.85 262.32 L 567.81 262.28 L 570.97 262.29 L 574.30 262.33 L 577.80 262.40 L 581.45 262.48 L 585.24 262.57 L 589.15 262.66 L 593.18 262.73 L 597.30 262.77 L 601.51 262.78 L 605.79 262.75 L 610.13 262.66 L 614.51 262.52 L 618.91 262.31 L 623.33 262.02 L 627.74 261.65 L 632.14 261.19 L 636.51 260.64 L 640.84 259.99 L 645.12 259.23 L 649.33 258.36 L 653.46 257.38 L 657.50 256.28 L 661.45 255.07 L 665.28 253.73 L 668.99 252.27 L 672.58 250.68 L 676.04 248.97 L 679.35 247.14 L 682.51 245.19 L 685.53 243.12 L 688.38 240.92 L 691.08 238.61 L 693.61 236.19 L 695.97 233.65 L 698.17 231.01 L 700.20 228.27 L 702.06 225.43 L 703.76 222.50 L 705.30 219.48 L 706.67 216.38 L 707.88 213.21 L 708.95 209.96 L 709.86 206.66 L 710.63 203.30" stroke="#e8b84b" stroke-width="26"/>
  <path d="M 113.92 754.74 L 116.06 757.67 L 118.95 760.96 L 122.59 764.61 L 126.96 768.57 L 132.04 772.82 L 137.82 777.33 L 144.26 782.09 L 151.36 787.05 L 159.08 792.18 L 167.40 797.47 L 176.27 802.87 L 185.67 808.36 L 195.57 813.90 L 205.92 819.46 L 216.68 825.02 L 227.83 830.53 L 239.30 835.98 L 251.07 841.33 L 263.09 846.55 L 275.31 851.61 L 287.70 856.48 L 300.19 861.14 L 312.76 865.56 L 325.35 869.71 L 337.92 873.58 L 350.42 877.13 L 362.81 880.36 L 375.05 883.23 L 387.09 885.72 L 398.89 887.84 L 410.41 889.54 L 421.62 890.84 L 432.46 891.70 L 442.92 892.13 L 452.95 892.12 L 462.51 891.65 L 471.59 890.72 L 480.15 889.34 L 488.17 887.50 L 495.62 885.20 L 502.48 882.45 L 508.74 879.24 L 514.37 875.59 L 519.36 871.51 L 523.70 867.00 L 527.39 862.08 L 530.42 856.76 L 532.78 851.05 L 534.47 844.97 L 535.50 838.54 L 535.88 831.77 L 535.60 824.69 L 534.68 817.32 L 533.13 809.68 L 530.97 801.79 L 528.21 793.68 L 524.88 785.37 L 520.99 776.89 L 516.57 768.26 L 511.65 759.51 L 506.25 750.67 L 500.40 741.76 L 494.14 732.80 L 487.49 723.84 L 480.49 714.89 L 473.18 705.97 L 465.59 697.13 L 457.76 688.37 L 449.72 679.73 L 441.51 671.24 L 433.18 662.91 L 424.76 654.77 L 416.29 646.84 L 407.81 639.14 L 399.36 631.69 L 390.97 624.52 L 382.69 617.63 L 374.55 611.05 L 366.59 604.79 L 358.84 598.86 L 351.34 593.28 L 344.11 588.05 L 337.20 583.20 L 330.63 578.72 L 324.44 574.61 L 318.64 570.90 L 313.26 567.57 L 308.33 564.63 L 303.87 562.08 L 299.89 559.92 L 296.42 558.15 L 293.47 556.76 L 291.05 555.74 L 289.17 555.09 L 287.85 554.79 L 287.08 554.84 L 286.88 555.23 L 287.23 555.94 L 288.15 556.96 L 289.63 558.27 L 291.66 559.86 L 294.25 561.71 L 297.36 563.80 L 301.01 566.11 L 305.16 568.62 L 309.81 571.31 L 314.95 574.17 L 320.54 577.16 L 326.57 580.27 L 333.02 583.48 L 339.86 586.75 L 347.06 590.08 L 354.61 593.43 L 362.47 596.78 L 370.62 600.12 L 379.01 603.42 L 387.63 606.65 L 396.45 609.80 L 405.42 612.85 L 414.52 615.77 L 423.72 618.55 L 432.97 621.16 L 442.26 623.59 L 451.55 625.82 L 460.80 627.84 L 469.99 629.62 L 479.07 631.17 L 488.03 632.45 L 496.83 633.46 L 505.45 634.19 L 513.85 634.63 L 522.00 634.78 L 529.89 634.61 L 537.49 634.14 L 544.77 633.35 L 551.72 632.23 L 558.31 630.80 L 564.52 629.05 L 570.35 626.98 L 575.76 624.58 L 580.76 621.87 L 585.32 618.85 L 589.45 615.53 L 593.12 611.91 L 596.34 607.99 L 599.10 603.80 L 601.40 599.34 L 603.25 594.61 L 604.63 589.64 L 605.55 584.44 L 606.03 579.02 L 606.06 573.39 L 605.66 567.57 L 604.84 561.58 L 603.60 555.43 L 601.97 549.14 L 599.96 542.73 L 597.58 536.22 L 594.85 529.61 L 591.79 522.95 L 588.42 516.23 L 584.77 509.48 L 580.85 502.71 L 576.70 495.96 L 572.32 489.22 L 567.75 482.53 L 563.02 475.89 L 558.14 469.34 L 553.15 462.87 L 548.07 456.51 L 542.92 450.28 L 537.74 444.19 L 532.55 438.24 L 527.38 432.47 L 522.24 426.87 L 517.17 421.46 L 512.19 416.26 L 507.33 411.26 L 502.61 406.49 L 498.04 401.94 L 493.66 397.63 L 489.49 393.56 L 485.53 389.73 L 481.82 386.15 L 478.37 382.82 L 475.19 379.75 L 472.30 376.93 L 469.72 374.36 L 467.45 372.05 L 465.51 369.98 L 463.91 368.16 L 462.64 366.59 L 461.73 365.24 L 461.17 364.13 L 460.97 363.24 L 461.13 362.56 L 461.65 362.09 L 462.53 361.81 L 463.76 361.72 L 465.34 361.81 L 467.27 362.05 L 469.54 362.45 L 472.14 362.99 L 475.06 363.65 L 478.29 364.42 L 481.81 365.29 L 485.63 366.25 L 489.71 367.28 L 494.05 368.36 L 498.64 369.48 L 503.44 370.63 L 508.46 371.80 L 513.66 372.96 L 519.03 374.11 L 524.55 375.23 L 530.20 376.30 L 535.97 377.33 L 541.82 378.28 L 547.75 379.16 L 553.73 379.94 L 559.73 380.62 L 565.75 381.18 L 571.76 381.62 L 577.75 381.93 L 583.68 382.10 L 589.55 382.12 L 595.33 381.97 L 601.01 381.67 L 606.58 381.20 L 612.00 380.55 L 617.28 379.72 L 622.39 378.71 L 627.32 377.52 L 632.06 376.14 L 636.60 374.58 L 640.92 372.82 L 645.02 370.88 L 648.89 368.76 L 652.52 366.45 L 655.90 363.96 L 659.03 361.30 L 661.91 358.47 L 664.52 355.46 L 666.88 352.30 L 668.98 348.99 L 670.81 345.52 L 672.39 341.92 L 673.71 338.18 L 674.78 334.32 L 675.60 330.34 L 676.19 326.26 L 676.53 322.08 L 676.65 317.82 L 676.55 313.48 L 676.24 309.07 L 675.73 304.60 L 675.04 300.09 L 674.16 295.54 L 673.12 290.97 L 671.93 286.38 L 670.60 281.79 L 669.14 277.20 L 667.57 272.62 L 665.90 268.07 L 664.15 263.56 L 662.33 259.08 L 660.45 254.66 L 658.53 250.30 L 656.58 246.01 L 654.62 241.79 L 652.67 237.65 L 650.72 233.60 L 648.81 229.65 L 646.94 225.80 L 645.12 222.05 L 643.37 218.41 L 641.69 214.89 L 640.11 211.48 L 638.62 208.19 L 637.25 205.02 L 635.99 201.98 L 634.86 199.06 L 633.86 196.26 L 633.01 193.59 L 632.30 191.03 L 631.75 188.60 L 631.35 186.29 L 631.11 184.10 L 631.04 182.01 L 631.13 180.04 L 631.39 178.18 L 631.82 176.41 L 632.41 174.75 L 633.17 173.17 L 634.10 171.69 L 635.18 170.28 L 636.42 168.95 L 637.82 167.69 L 639.36 166.49 L 641.05 165.34" stroke="#f4f1e8" stroke-width="18"/>
</g></svg>