<svg xmlns="http://www.w3.org/2000/svg" width="1024" height="1024" viewBox="0 0 1024 1024">
<rect width="1024" height="1024" rx="225.28" fill="#ece2cf"/>
<g fill="none" stroke-linecap="round" stroke-linejoin="round">
<path d="M 327.7 849.9 Q 836.1 694.5 655.4 194.6" stroke="#1a1410" stroke-width="12"/>
<line x1="524.6" y1="948.4" x2="142.1" y2="759.6" stroke="#1a1410" stroke-width="3" stroke-opacity="0.55"/><line x1="130.8" y1="751.5" x2="523.5" y2="919.8" stroke="#1a1410" stroke-width="3" stroke-opacity="0.55"/><line x1="523.5" y1="919.8" x2="160.5" y2="770.3" stroke="#1a1410" stroke-width="3" stroke-opacity="0.55"/><line x1="142.1" y1="759.6" x2="515.3" y2="888.6" stroke="#1a1410" stroke-width="3" stroke-opacity="0.55"/><line x1="515.3" y1="888.6" x2="185.4" y2="782.8" stroke="#1a1410" stroke-width="3" stroke-opacity="0.55"/><line x1="160.5" y1="770.3" x2="500.6" y2="855.6" stroke="#1a1410" stroke-width="3" stroke-opacity="0.55"/><line x1="500.6" y1="855.6" x2="215.9" y2="796.1" stroke="#1a1410" stroke-width="3" stroke-opacity="0.55"/><line x1="185.4" y1="782.8" x2="480.4" y2="821.9" stroke="#1a1410" stroke-width="3" stroke-opacity="0.55"/><line x1="480.4" y1="821.9" x2="250.7" y2="809.2" stroke="#1a1410" stroke-width="3" stroke-opacity="0.55"/><line x1="215.9" y1="796.1" x2="455.8" y2="788.2" stroke="#1a1410" stroke-width="3" stroke-opacity="0.55"/><line x1="455.8" y1="788.2" x2="288.7" y2="821.4" stroke="#1a1410" stroke-width="3" stroke-opacity="0.55"/><line x1="250.7" y1="809.2" x2="428.1" y2="755.6" stroke="#1a1410" stroke-width="3" stroke-opacity="0.55"/><line x1="428.1" y1="755.6" x2="328.5" y2="831.6" stroke="#1a1410" stroke-width="3" stroke-opacity="0.55"/><line x1="288.7" y1="821.4" x2="398.6" y2="724.8" stroke="#1a1410" stroke-width="3" stroke-opacity="0.55"/><line x1="398.6" y1="724.8" x2="368.6" y2="839.3" stroke="#1a1410" stroke-width="3" stroke-opacity="0.55"/><line x1="328.5" y1="831.6" x2="368.6" y2="696.7" stroke="#1a1410" stroke-width="3" stroke-opacity="0.55"/><line x1="368.6" y1="696.7" x2="407.9" y2="843.8" stroke="#1a1410" stroke-width="3" stroke-opacity="0.55"/><line x1="368.6" y1="839.3" x2="339.7" y2="671.7" stroke="#1a1410" stroke-width="3" stroke-opacity="0.55"/><line x1="339.7" y1="671.7" x2="444.8" y2="844.6" stroke="#1a1410" stroke-width="3" stroke-opacity="0.55"/><line x1="407.9" y1="843.8" x2="312.9" y2="650.5" stroke="#1a1410" stroke-width="3" stroke-opacity="0.55"/><line x1="312.9" y1="650.5" x2="478.4" y2="841.3" stroke="#1a1410" stroke-width="3" stroke-opacity="0.55"/><line x1="444.8" y1="844.6" x2="289.6" y2="633.3" stroke="#1a1410" stroke-width="3" stroke-opacity="0.55"/><line x1="289.6" y1="633.3" x2="507.5" y2="833.9" stroke="#1a1410" stroke-width="3" stroke-opacity="0.55"/><line x1="478.4" y1="841.3" x2="270.8" y2="620.2" stroke="#1a1410" stroke-width="3" stroke-opacity="0.55"/><line x1="270.8" y1="620.2" x2="531.4" y2="822.2" stroke="#1a1410" stroke-width="3" stroke-opacity="0.55"/><line x1="507.5" y1="833.9" x2="257.1" y2="611.4" stroke="#1a1410" stroke-width="3" stroke-opacity="0.55"/><line x1="257.1" y1="611.4" x2="549.5" y2="806.6" stroke="#1a1410" stroke-width="3" stroke-opacity="0.55"/><line x1="531.4" y1="822.2" x2="249.3" y2="606.5" stroke="#1a1410" stroke-width="3" stroke-opacity="0.55"/><line x1="249.3" y1="606.5" x2="561.4" y2="787.3" stroke="#1a1410" stroke-width="3" stroke-opacity="0.55"/><line x1="549.5" y1="806.6" x2="247.6" y2="605.3" stroke="#1a1410" stroke-width="3" stroke-opacity="0.55"/><line x1="247.6" y1="605.3" x2="567.1" y2="764.8" stroke="#1a1410" stroke-width="3" stroke-opacity="0.55"/><line x1="561.4" y1="787.3" x2="252.1" y2="607.3" stroke="#1a1410" stroke-width="3" stroke-opacity="0.55"/><line x1="252.1" y1="607.3" x2="566.8" y2="739.7" stroke="#1a1410" stroke-width="3" stroke-opacity="0.55"/><line x1="567.1" y1="764.8" x2="262.6" y2="612.0" stroke="#1a1410" stroke-width="3" stroke-opacity="0.55"/><line x1="262.6" y1="612.0" x2="560.8" y2="712.6" stroke="#1a1410" stroke-width="3" stroke-opacity="0.55"/><line x1="566.8" y1="739.7" x2="278.8" y2="618.6" stroke="#1a1410" stroke-width="3" stroke-opacity="0.55"/><line x1="278.8" y1="618.6" x2="549.8" y2="684.2" stroke="#1a1410" stroke-width="3" stroke-opacity="0.55"/><line x1="560.8" y1="712.6" x2="300.1" y2="626.5" stroke="#1a1410" stroke-width="3" stroke-opacity="0.55"/><line x1="300.1" y1="626.5" x2="534.5" y2="655.3" stroke="#1a1410" stroke-width="3" stroke-opacity="0.55"/><line x1="549.8" y1="684.2" x2="325.6" y2="634.9" stroke="#1a1410" stroke-width="3" stroke-opacity="0.55"/><line x1="325.6" y1="634.9" x2="515.9" y2="626.6" stroke="#1a1410" stroke-width="3" stroke-opacity="0.55"/><line x1="534.5" y1="655.3" x2="354.5" y2="643.1" stroke="#1a1410" stroke-width="3" stroke-opacity="0.55"/><line x1="354.5" y1="643.1" x2="495.0" y2="598.9" stroke="#1a1410" stroke-width="3" stroke-opacity="0.55"/><line x1="515.9" y1="626.6" x2="385.7" y2="650.4" stroke="#1a1410" stroke-width="3" stroke-opacity="0.55"/><line x1="385.7" y1="650.4" x2="472.8" y2="572.7" stroke="#1a1410" stroke-width="3" stroke-opacity="0.55"/><line x1="495.0" y1="598.9" x2="418.1" y2="656.1" stroke="#1a1410" stroke-width="3" stroke-opacity="0.55"/><line x1="418.1" y1="656.1" x2="450.6" y2="548.7" stroke="#1a1410" stroke-width="3" stroke-opacity="0.55"/><line x1="472.8" y1="572.7" x2="450.6" y2="659.6" stroke="#1a1410" stroke-width="3" stroke-opacity="0.55"/><line x1="450.6" y1="659.6" x2="429.3" y2="527.3" stroke="#1a1410" stroke-width="3" stroke-opacity="0.55"/><line x1="450.6" y1="548.7" x2="482.1" y2="660.6" stroke="#1a1410" stroke-width="3" stroke-opacity="0.55"/><line x1="482.1" y1="660.6" x2="409.9" y2="508.8" stroke="#1a1410" stroke-width="3" stroke-opacity="0.55"/><line x1="429.3" y1="527.3" x2="511.7" y2="658.5" stroke="#1a1410" stroke-width="3" stroke-opacity="0.55"/><line x1="511.7" y1="658.5" x2="393.4" y2="493.5" stroke="#1a1410" stroke-width="3" stroke-opacity="0.55"/><line x1="409.9" y1="508.8" x2="538.4" y2="653.3" stroke="#1a1410" stroke-width="3" stroke-opacity="0.55"/><line x1="538.4" y1="653.3" x2="380.5" y2="481.5" stroke="#1a1410" stroke-width="3" stroke-opacity="0.55"/><line x1="393.4" y1="493.5" x2="561.5" y2="644.9" stroke="#1a1410" stroke-width="3" stroke-opacity="0.55"/><line x1="561.5" y1="644.9" x2="371.8" y2="472.7" stroke="#1a1410" stroke-width="3" stroke-opacity="0.55"/><line x1="380.5" y1="481.5" x2="580.5" y2="633.2" stroke="#1a1410" stroke-width="3" stroke-opacity="0.55"/><line x1="580.5" y1="633.2" x2="367.6" y2="466.9" stroke="#1a1410" stroke-width="3" stroke-opacity="0.55"/><line x1="371.8" y1="472.7" x2="595.0" y2="618.5" stroke="#1a1410" stroke-width="3" stroke-opacity="0.55"/><line x1="595.0" y1="618.5" x2="368.1" y2="463.9" stroke="#1a1410" stroke-width="3" stroke-opacity="0.55"/><line x1="367.6" y1="466.9" x2="604.7" y2="601.1" stroke="#1a1410" stroke-width="3" stroke-opacity="0.55"/><line x1="604.7" y1="601.1" x2="373.4" y2="463.2" stroke="#1a1410" stroke-width="3" stroke-opacity="0.55"/><line x1="368.1" y1="463.9" x2="609.7" y2="581.3" stroke="#1a1410" stroke-width="3" stroke-opacity="0.55"/><line x1="609.7" y1="581.3" x2="383.2" y2="464.4" stroke="#1a1410" stroke-width="3" stroke-opacity="0.55"/><line x1="373.4" y1="463.2" x2="610.1" y2="559.6" stroke="#1a1410" stroke-width="3" stroke-opacity="0.55"/><line x1="610.1" y1="559.6" x2="397.2" y2="466.9" stroke="#1a1410" stroke-width="3" stroke-opacity="0.55"/><line x1="383.2" y1="464.4" x2="606.4" y2="536.6" stroke="#1a1410" stroke-width="3" stroke-opacity="0.55"/><line x1="606.4" y1="536.6" x2="414.8" y2="470.2" stroke="#1a1410" stroke-width="3" stroke-opacity="0.55"/><line x1="397.2" y1="466.9" x2="599.0" y2="512.8" stroke="#1a1410" stroke-width="3" stroke-opacity="0.55"/><line x1="599.0" y1="512.8" x2="435.4" y2="473.8" stroke="#1a1410" stroke-width="3" stroke-opacity="0.55"/><line x1="414.8" y1="470.2" x2="588.6" y2="488.7" stroke="#1a1410" stroke-width="3" stroke-opacity="0.55"/><line x1="588.6" y1="488.7" x2="458.3" y2="477.1" stroke="#1a1410" stroke-width="3" stroke-opacity="0.55"/><line x1="435.4" y1="473.8" x2="575.9" y2="465.0" stroke="#1a1410" stroke-width="3" stroke-opacity="0.55"/><line x1="575.9" y1="465.0" x2="482.7" y2="479.5" stroke="#1a1410" stroke-width="3" stroke-opacity="0.55"/><line x1="458.3" y1="477.1" x2="561.8" y2="442.1" stroke="#1a1410" stroke-width="3" stroke-opacity="0.55"/><line x1="561.8" y1="442.1" x2="507.7" y2="480.6" stroke="#1a1410" stroke-width="3" stroke-opacity="0.55"/><line x1="482.7" y1="479.5" x2="547.0" y2="420.6" stroke="#1a1410" stroke-width="3" stroke-opacity="0.55"/><line x1="547.0" y1="420.6" x2="532.5" y2="479.9" stroke="#1a1410" stroke-width="3" stroke-opacity="0.55"/><line x1="507.7" y1="480.6" x2="532.5" y2="400.7" stroke="#1a1410" stroke-width="3" stroke-opacity="0.55"/><line x1="532.5" y1="400.7" x2="556.3" y2="477.3" stroke="#1a1410" stroke-width="3" stroke-opacity="0.55"/><line x1="532.5" y1="479.9" x2="518.9" y2="382.8" stroke="#1a1410" stroke-width="3" stroke-opacity="0.55"/><line x1="518.9" y1="382.8" x2="578.5" y2="472.5" stroke="#1a1410" stroke-width="3" stroke-opacity="0.55"/><line x1="556.3" y1="477.3" x2="506.9" y2="367.2" stroke="#1a1410" stroke-width="3" stroke-opacity="0.55"/><line x1="506.9" y1="367.2" x2="598.4" y2="465.4" stroke="#1a1410" stroke-width="3" stroke-opacity="0.55"/><line x1="578.5" y1="472.5" x2="497.2" y2="353.8" stroke="#1a1410" stroke-width="3" stroke-opacity="0.55"/><line x1="497.2" y1="353.8" x2="615.6" y2="455.9" stroke="#1a1410" stroke-width="3" stroke-opacity="0.55"/><line x1="598.4" y1="465.4" x2="490.3" y2="342.8" stroke="#1a1410" stroke-width="3" stroke-opacity="0.55"/><line x1="490.3" y1="342.8" x2="629.7" y2="444.2" stroke="#1a1410" stroke-width="3" stroke-opacity="0.55"/><line x1="615.6" y1="455.9" x2="486.4" y2="334.0" stroke="#1a1410" stroke-width="3" stroke-opacity="0.55"/><line x1="486.4" y1="334.0" x2="640.5" y2="430.4" stroke="#1a1410" stroke-width="3" stroke-opacity="0.55"/><line x1="629.7" y1="444.2" x2="485.9" y2="327.3" stroke="#1a1410" stroke-width="3" stroke-opacity="0.55"/><line x1="485.9" y1="327.3" x2="648.0" y2="414.9" stroke="#1a1410" stroke-width="3" stroke-opacity="0.55"/><line x1="640.5" y1="430.4" x2="488.7" y2="322.4" stroke="#1a1410" stroke-width="3" stroke-opacity="0.55"/><line x1="488.7" y1="322.4" x2="652.2" y2="397.8" stroke="#1a1410" stroke-width="3" stroke-opacity="0.55"/><line x1="648.0" y1="414.9" x2="494.7" y2="319.0" stroke="#1a1410" stroke-width="3" stroke-opacity="0.55"/><line x1="494.7" y1="319.0" x2="653.4" y2="379.6" stroke="#1a1410" stroke-width="3" stroke-opacity="0.55"/><line x1="652.2" y1="397.8" x2="503.7" y2="316.7" stroke="#1a1410" stroke-width="3" stroke-opacity="0.55"/><line x1="503.7" y1="316.7" x2="651.9" y2="360.7" stroke="#1a1410" stroke-width="3" stroke-opacity="0.55"/><line x1="653.4" y1="379.6" x2="515.5" y2="315.2" stroke="#1a1410" stroke-width="3" stroke-opacity="0.55"/><line x1="515.5" y1="315.2" x2="648.2" y2="341.4" stroke="#1a1410" stroke-width="3" stroke-opacity="0.55"/><line x1="651.9" y1="360.7" x2="529.4" y2="314.0" stroke="#1a1410" stroke-width="3" stroke-opacity="0.55"/><line x1="529.4" y1="314.0" x2="642.7" y2="322.2" stroke="#1a1410" stroke-width="3" stroke-opacity="0.55"/><line x1="648.2" y1="341.4" x2="545.2" y2="312.7" stroke="#1a1410" stroke-width="3" stroke-opacity="0.55"/><line x1="545.2" y1="312.7" x2="636.0" y2="303.4" stroke="#1a1410" stroke-width="3" stroke-opacity="0.55"/><line x1="642.7" y1="322.2" x2="562.1" y2="311.0" stroke="#1a1410" stroke-width="3" stroke-opacity="0.55"/><line x1="562.1" y1="311.0" x2="628.7" y2="285.4" stroke="#1a1410" stroke-width="3" stroke-opacity="0.55"/><line x1="636.0" y1="303.4" x2="579.7" y2="308.5" stroke="#1a1410" stroke-width="3" stroke-opacity="0.55"/><line x1="579.7" y1="308.5" x2="621.3" y2="268.4" stroke="#1a1410" stroke-width="3" stroke-opacity="0.55"/><line x1="628.7" y1="285.4" x2="597.3" y2="305.0" stroke="#1a1410" stroke-width="3" stroke-opacity="0.55"/><line x1="597.3" y1="305.0" x2="614.4" y2="252.7" stroke="#1a1410" stroke-width="3" stroke-opacity="0.55"/><line x1="621.3" y1="268.4" x2="614.4" y2="300.3" stroke="#1a1410" stroke-width="3" stroke-opacity="0.55"/><line x1="614.4" y1="300.3" x2="608.5" y2="238.4" stroke="#1a1410" stroke-width="3" stroke-opacity="0.55"/><line x1="614.4" y1="252.7" x2="630.6" y2="294.1" stroke="#1a1410" stroke-width="3" stroke-opacity="0.55"/><line x1="630.6" y1="294.1" x2="603.9" y2="225.5" stroke="#1a1410" stroke-width="3" stroke-opacity="0.55"/><line x1="608.5" y1="238.4" x2="645.4" y2="286.5" stroke="#1a1410" stroke-width="3" stroke-opacity="0.55"/><line x1="645.4" y1="286.5" x2="601.0" y2="214.1" stroke="#1a1410" stroke-width="3" stroke-opacity="0.55"/><line x1="603.9" y1="225.5" x2="658.5" y2="277.4" stroke="#1a1410" stroke-width="3" stroke-opacity="0.55"/><line x1="658.5" y1="277.4" x2="600.1" y2="204.1" stroke="#1a1410" stroke-width="3" stroke-opacity="0.55"/><line x1="601.0" y1="214.1" x2="669.7" y2="266.9" stroke="#1a1410" stroke-width="3" stroke-opacity="0.55"/><line x1="669.7" y1="266.9" x2="601.1" y2="195.4" stroke="#1a1410" stroke-width="3" stroke-opacity="0.55"/><line x1="600.1" y1="204.1" x2="678.9" y2="255.2" stroke="#1a1410" stroke-width="3" stroke-opacity="0.55"/><line x1="678.9" y1="255.2" x2="604.2" y2="187.7" stroke="#1a1410" stroke-width="3" stroke-opacity="0.55"/><line x1="601.1" y1="195.4" x2="686.1" y2="242.3" stroke="#1a1410" stroke-width="3" stroke-opacity="0.55"/><line x1="686.1" y1="242.3" x2="609.2" y2="181.0" stroke="#1a1410" stroke-width="3" stroke-opacity="0.55"/><line x1="604.2" y1="187.7" x2="691.3" y2="228.6" stroke="#1a1410" stroke-width="3" stroke-opacity="0.55"/><line x1="691.3" y1="228.6" x2="616.0" y2="174.9" stroke="#1a1410" stroke-width="3" stroke-opacity="0.55"/><line x1="609.2" y1="181.0" x2="694.7" y2="214.3" stroke="#1a1410" stroke-width="3" stroke-opacity="0.55"/><line x1="524.6" y1="948.4" x2="130.8" y2="751.5" stroke="#1a1410" stroke-width="3" stroke-opacity="0.45"/><line x1="515.3" y1="888.6" x2="160.5" y2="770.3" stroke="#1a1410" stroke-width="3" stroke-opacity="0.45"/><line x1="480.4" y1="821.9" x2="215.9" y2="796.1" stroke="#1a1410" stroke-width="3" stroke-opacity="0.45"/><line x1="428.1" y1="755.6" x2="288.7" y2="821.4" stroke="#1a1410" stroke-width="3" stroke-opacity="0.45"/><line x1="368.6" y1="696.7" x2="368.6" y2="839.3" stroke="#1a1410" stroke-width="3" stroke-opacity="0.45"/><line x1="312.9" y1="650.5" x2="444.8" y2="844.6" stroke="#1a1410" stroke-width="3" stroke-opacity="0.45"/><line x1="270.8" y1="620.2" x2="507.5" y2="833.9" stroke="#1a1410" stroke-width="3" stroke-opacity="0.45"/><line x1="249.3" y1="606.5" x2="549.5" y2="806.6" stroke="#1a1410" stroke-width="3" stroke-opacity="0.45"/><line x1="252.1" y1="607.3" x2="567.1" y2="764.8" stroke="#1a1410" stroke-width="3" stroke-opacity="0.45"/><line x1="278.8" y1="618.6" x2="560.8" y2="712.6" stroke="#1a1410" stroke-width="3" stroke-opacity="0.45"/><line x1="325.6" y1="634.9" x2="534.5" y2="655.3" stroke="#1a1410" stroke-width="3" stroke-opacity="0.45"/><line x1="385.7" y1="650.4" x2="495.0" y2="598.9" stroke="#1a1410" stroke-width="3" stroke-opacity="0.45"/><line x1="450.6" y1="659.6" x2="450.6" y2="548.7" stroke="#1a1410" stroke-width="3" stroke-opacity="0.45"/><line x1="511.7" y1="658.5" x2="409.9" y2="508.8" stroke="#1a1410" stroke-width="3" stroke-opacity="0.45"/><line x1="561.5" y1="644.9" x2="380.5" y2="481.5" stroke="#1a1410" stroke-width="3" stroke-opacity="0.45"/><line x1="595.0" y1="618.5" x2="367.6" y2="466.9" stroke="#1a1410" stroke-width="3" stroke-opacity="0.45"/><line x1="609.7" y1="581.3" x2="373.4" y2="463.2" stroke="#1a1410" stroke-width="3" stroke-opacity="0.45"/><line x1="606.4" y1="536.6" x2="397.2" y2="466.9" stroke="#1a1410" stroke-width="3" stroke-opacity="0.45"/><line x1="588.6" y1="488.7" x2="435.4" y2="473.8" stroke="#1a1410" stroke-width="3" stroke-opacity="0.45"/><line x1="561.8" y1="442.1" x2="482.7" y2="479.5" stroke="#1a1410" stroke-width="3" stroke-opacity="0.45"/><line x1="532.5" y1="400.7" x2="532.5" y2="479.9" stroke="#1a1410" stroke-width="3" stroke-opacity="0.45"/><line x1="506.9" y1="367.2" x2="578.5" y2="472.5" stroke="#1a1410" stroke-width="3" stroke-opacity="0.45"/><line x1="490.3" y1="342.8" x2="615.6" y2="455.9" stroke="#1a1410" stroke-width="3" stroke-opacity="0.45"/><line x1="485.9" y1="327.3" x2="640.5" y2="430.4" stroke="#1a1410" stroke-width="3" stroke-opacity="0.45"/><line x1="494.7" y1="319.0" x2="652.2" y2="397.8" stroke="#1a1410" stroke-width="3" stroke-opacity="0.45"/><line x1="515.5" y1="315.2" x2="651.9" y2="360.7" stroke="#1a1410" stroke-width="3" stroke-opacity="0.45"/><line x1="545.2" y1="312.7" x2="642.7" y2="322.2" stroke="#1a1410" stroke-width="3" stroke-opacity="0.45"/><line x1="579.7" y1="308.5" x2="628.7" y2="285.4" stroke="#1a1410" stroke-width="3" stroke-opacity="0.45"/><line x1="614.4" y1="300.3" x2="614.4" y2="252.7" stroke="#1a1410" stroke-width="3" stroke-opacity="0.45"/><line x1="645.4" y1="286.5" x2="603.9" y2="225.5" stroke="#1a1410" stroke-width="3" stroke-opacity="0.45"/><line x1="669.7" y1="266.9" x2="600.1" y2="204.1" stroke="#1a1410" stroke-width="3" stroke-opacity="0.45"/><line x1="686.1" y1="242.3" x2="604.2" y2="187.7" stroke="#1a1410" stroke-width="3" stroke-opacity="0.45"/><line x1="694.7" y1="214.3" x2="616.0" y2="174.9" stroke="#1a1410" stroke-width="3" stroke-opacity="0.45"/>
<line x1="107.5" y1="857.9" x2="591.9" y2="857.9" stroke="#1a1410" stroke-width="14"/>
<path d="M 524.60 948.38 L 523.52 919.77 L 515.30 888.56 L 500.63 855.61 L 480.44 821.86 L 455.84 788.22 L 428.11 755.60 L 398.58 724.83 L 368.64 696.67 L 339.67 671.72 L 312.94 650.48 L 289.64 633.26 L 270.76 620.23 L 257.12 611.36 L 249.27 606.49 L 247.56 605.30 L 252.07 607.31 L 262.63 611.97 L 278.85 618.61 L 300.12 626.51 L 325.65 634.94 L 354.52 643.14 L 385.69 650.41 L 418.07 656.10 L 450.56 659.64 L 482.09 660.57 L 511.67 658.54 L 538.40 653.34 L 561.55 644.88 L 580.54 633.22 L 594.98 618.53 L 604.69 601.10 L 609.67 581.32 L 610.11 559.65 L 606.37 536.62 L 598.98 512.80 L 588.58 488.75 L 575.92 465.02 L 561.80 442.14 L 547.05 420.57 L 532.48 400.69 L 518.87 382.82 L 506.93 367.16 L 497.24 353.82 L 490.30 342.81 L 486.45 334.04 L 485.88 327.33 L 488.65 322.43 L 494.67 319.02 L 503.72 316.73 L 515.46 315.18 L 529.45 313.97 L 545.19 312.69 L 562.12 310.98 L 579.67 308.51 L 597.27 305.01 L 614.40 300.26 L 630.56 294.11 L 645.36 286.50 L 658.48 277.42 L 669.69 266.94 L 678.89 255.18 L 686.05 242.33 L 691.28 228.61 L 694.74 214.25" stroke="#d2342a" stroke-width="16" stroke-opacity="1"/><path d="M 130.76 751.46 L 142.08 759.59 L 160.54 770.32 L 185.45 782.79 L 215.88 796.06 L 250.72 809.22 L 288.69 821.36 L 328.46 831.65 L 368.64 839.33 L 407.85 843.80 L 444.82 844.56 L 478.36 841.30 L 507.48 833.85 L 531.36 822.24 L 549.45 806.63 L 561.40 787.34 L 567.13 764.85 L 566.81 739.71 L 560.83 712.59 L 549.80 684.21 L 534.51 655.30 L 515.88 626.62 L 494.95 598.87 L 472.81 572.70 L 450.56 548.68 L 429.27 527.27 L 409.93 508.82 L 393.44 493.54 L 380.53 481.52 L 371.78 472.70 L 367.58 466.91 L 368.11 463.86 L 373.37 463.16 L 383.17 464.35 L 397.15 466.90 L 414.78 470.24 L 435.42 473.81 L 458.32 477.06 L 482.68 479.46 L 507.67 480.55 L 532.48 479.95 L 556.33 477.34 L 578.51 472.52 L 598.44 465.38 L 615.62 455.91 L 629.71 444.20 L 640.52 430.43 L 647.99 414.85 L 652.21 397.78 L 653.40 379.59 L 651.90 360.66 L 648.15 341.39 L 642.65 322.19 L 635.96 303.42 L 628.65 285.41 L 621.29 268.43 L 614.40 252.70 L 608.48 238.37 L 603.92 225.50 L 601.04 214.10 L 600.07 204.10 L 601.11 195.38 L 604.19 187.75 L 609.20 180.99 L 615.98 174.87" stroke="#d2342a" stroke-width="16" stroke-opacity="1"/>
</g></svg>