<svg xmlns="http://www.w3.org/2000/svg" width="1024" height="1024" viewBox="0 0 1024 1024">
  <defs>
    <linearGradient id="bg" x1="0" y1="0" x2="0" y2="1">
      <stop offset="0" stop-color="#1b2a4a"/>
      <stop offset="1" stop-color="#0c1326"/>
    </linearGradient>
  </defs>
  <rect width="1024" height="1024" rx="225.28" fill="url(#bg)"/>
  <g fill="none" stroke-linecap="round" stroke-linejoin="round">
    <line x1="348.2" y1="880.6" x2="593.9" y2="163.8" stroke="#3a4a6b" stroke-width="10"/>
    <path d="M 541.89 947.06 L 541.84 938.85 L 540.90 930.38 L 539.09 921.69 L 536.42 912.81 L 532.93 903.76 L 528.63 894.58 L 523.56 885.29 L 517.75 875.92 L 511.24 866.50 L 504.06 857.07 L 496.27 847.65 L 487.89 838.28 L 478.99 828.98 L 469.61 819.78 L 459.81 810.72 L 449.63 801.81 L 439.13 793.08 L 428.38 784.57 L 417.41 776.29 L 406.30 768.26 L 395.10 760.52 L 383.86 753.07 L 372.65 745.95 L 361.52 739.16 L 350.53 732.72 L 339.73 726.64 L 329.17 720.94 L 318.92 715.62 L 309.01 710.70 L 299.50 706.19 L 290.44 702.07 L 281.86 698.36 L 273.81 695.06 L 266.33 692.17 L 259.46 689.68 L 253.22 687.58 L 247.64 685.88 L 242.76 684.56 L 238.59 683.61 L 235.15 683.02 L 232.46 682.77 L 230.52 682.85 L 229.36 683.25 L 228.97 683.94 L 229.35 684.91 L 230.51 686.13 L 232.42 687.58 L 235.09 689.24 L 238.50 691.10 L 242.64 693.11 L 247.48 695.27 L 253.00 697.53 L 259.17 699.89 L 265.97 702.31 L 273.36 704.76 L 281.31 707.23 L 289.78 709.68 L 298.74 712.09 L 308.14 714.44 L 317.93 716.69 L 328.09 718.84 L 338.55 720.85 L 349.27 722.70 L 360.21 724.37 L 371.32 725.84 L 382.55 727.09 L 393.85 728.10 L 405.16 728.86 L 416.46 729.35 L 427.67 729.56 L 438.77 729.47 L 449.69 729.07 L 460.41 728.35 L 470.87 727.31 L 481.03 725.94 L 490.85 724.24 L 500.29 722.19 L 509.32 719.81 L 517.90 717.08 L 526.01 714.01 L 533.60 710.61 L 540.66 706.88 L 547.17 702.83 L 553.09 698.45 L 558.42 693.77 L 563.14 688.80 L 567.23 683.54 L 570.69 678.01 L 573.51 672.22 L 575.70 666.19 L 577.24 659.93 L 578.14 653.47 L 578.42 646.82 L 578.07 640.00 L 577.11 633.02 L 575.56 625.92 L 573.44 618.70 L 570.75 611.40 L 567.53 604.03 L 563.81 596.61 L 559.60 589.16 L 554.94 581.72 L 549.86 574.28 L 544.39 566.89 L 538.56 559.55 L 532.42 552.29 L 525.99 545.13 L 519.32 538.08 L 512.45 531.17 L 505.41 524.40 L 498.24 517.81 L 490.98 511.40 L 483.68 505.18 L 476.37 499.17 L 469.10 493.39 L 461.89 487.84 L 454.79 482.53 L 447.84 477.47 L 441.07 472.67 L 434.52 468.13 L 428.22 463.87 L 422.20 459.87 L 416.50 456.15 L 411.13 452.71 L 406.14 449.53 L 401.53 446.63 L 397.34 444.00 L 393.59 441.63 L 390.28 439.52 L 387.45 437.66 L 385.10 436.04 L 383.24 434.66 L 381.88 433.50 L 381.02 432.55 L 380.67 431.80 L 380.84 431.24 L 381.51 430.85 L 382.68 430.62 L 384.36 430.54 L 386.52 430.59 L 389.15 430.75 L 392.26 431.01 L 395.81 431.34 L 399.79 431.74 L 404.18 432.19 L 408.97 432.67 L 414.12 433.16 L 419.62 433.65 L 425.44 434.11 L 431.55 434.55 L 437.93 434.92 L 444.54 435.24 L 451.36 435.47 L 458.35 435.60 L 465.49 435.62 L 472.74 435.52 L 480.08 435.29 L 487.47 434.90 L 494.88 434.36 L 502.28 433.66 L 509.64 432.78 L 516.93 431.71 L 524.12 430.46 L 531.18 429.01 L 538.09 427.35 L 544.82 425.50 L 551.35 423.44 L 557.64 421.17 L 563.68 418.69 L 569.46 416.00 L 574.94 413.10 L 580.11 410.00 L 584.96 406.70 L 589.48 403.20 L 593.64 399.52 L 597.45 395.64 L 600.88 391.59 L 603.95 387.37 L 606.64 382.98 L 608.94 378.45 L 610.87 373.77 L 612.42 368.96 L 613.59 364.02 L 614.39 358.98 L 614.82 353.84 L 614.90 348.61 L 614.64 343.30 L 614.04 337.93 L 613.12 332.52 L 611.90 327.07 L 610.39 321.59 L 608.60 316.10 L 606.56 310.61 L 604.28 305.14 L 601.79 299.69 L 599.11 294.27 L 596.25 288.91 L 593.24 283.60 L 590.11 278.36 L 586.86 273.20 L 583.54 268.13 L 580.15 263.16 L 576.73 258.29 L 573.29 253.53 L 569.86 248.89 L 566.46 244.38 L 563.11 239.99 L 559.84 235.74 L 556.65 231.63 L 553.58 227.66 L 550.63 223.84 L 547.83 220.16 L 545.20 216.62 L 542.74 213.23 L 540.47 209.98 L 538.41 206.88 L 536.56 203.92 L 534.94 201.09 L 533.55 198.40 L 532.41 195.84 L 531.51 193.40 L 530.86 191.08 L 530.47 188.87 L 530.34 186.78 L 530.46 184.78 L 530.84 182.87 L 531.47 181.05 L 532.34 179.30 L 533.47 177.63 L 534.83 176.01 L 536.42 174.45 L 538.24 172.93 L 540.27 171.44 L 542.50 169.98 L 544.92 168.54 L 547.52 167.10 L 550.28 165.67 L 553.20 164.23 L 556.26 162.77 L 559.44 161.29" stroke="#e8b84b" stroke-width="22"/>
    <path d="M 154.43 814.22 L 156.53 816.46 L 159.52 818.95 L 163.38 821.67 L 168.09 824.58 L 173.63 827.65 L 179.97 830.86 L 187.09 834.18 L 194.95 837.58 L 203.51 841.02 L 212.74 844.48 L 222.58 847.92 L 233.00 851.32 L 243.95 854.65 L 255.38 857.87 L 267.23 860.96 L 279.46 863.90 L 292.00 866.65 L 304.81 869.19 L 317.82 871.50 L 330.98 873.55 L 344.23 875.32 L 357.51 876.79 L 370.77 877.95 L 383.95 878.76 L 396.99 879.23 L 409.84 879.33 L 422.44 879.06 L 434.75 878.40 L 446.70 877.35 L 458.26 875.89 L 469.37 874.04 L 479.99 871.77 L 490.09 869.10 L 499.62 866.02 L 508.54 862.54 L 516.83 858.66 L 524.45 854.39 L 531.39 849.73 L 537.61 844.71 L 543.09 839.33 L 547.83 833.60 L 551.81 827.55 L 555.02 821.18 L 557.46 814.51 L 559.13 807.57 L 560.02 800.38 L 560.15 792.95 L 559.53 785.32 L 558.17 777.49 L 556.08 769.50 L 553.29 761.37 L 549.82 753.13 L 545.69 744.81 L 540.94 736.41 L 535.60 727.99 L 529.70 719.55 L 523.27 711.12 L 516.36 702.74 L 509.02 694.42 L 501.27 686.19 L 493.16 678.07 L 484.75 670.09 L 476.07 662.26 L 467.18 654.62 L 458.12 647.18 L 448.94 639.95 L 439.69 632.97 L 430.42 626.23 L 421.18 619.77 L 412.01 613.59 L 402.96 607.71 L 394.08 602.13 L 385.41 596.87 L 377.01 591.94 L 368.89 587.34 L 361.12 583.07 L 353.73 579.14 L 346.74 575.55 L 340.21 572.31 L 334.15 569.40 L 328.61 566.83 L 323.59 564.58 L 319.14 562.67 L 315.26 561.07 L 311.98 559.77 L 309.31 558.77 L 307.27 558.06 L 305.85 557.62 L 305.08 557.44 L 304.94 557.49 L 305.45 557.77 L 306.59 558.26 L 308.37 558.94 L 310.76 559.79 L 313.77 560.79 L 317.37 561.92 L 321.54 563.16 L 326.27 564.49 L 331.54 565.89 L 337.31 567.34 L 343.57 568.81 L 350.28 570.28 L 357.41 571.74 L 364.92 573.16 L 372.80 574.53 L 380.99 575.82 L 389.46 577.00 L 398.18 578.08 L 407.10 579.02 L 416.19 579.81 L 425.41 580.43 L 434.71 580.87 L 444.06 581.11 L 453.42 581.15 L 462.74 580.96 L 472.00 580.54 L 481.14 579.87 L 490.14 578.96 L 498.96 577.78 L 507.56 576.35 L 515.91 574.64 L 523.97 572.66 L 531.73 570.41 L 539.14 567.88 L 546.18 565.08 L 552.84 562.01 L 559.07 558.67 L 564.88 555.06 L 570.23 551.20 L 575.11 547.09 L 579.51 542.73 L 583.42 538.14 L 586.83 533.33 L 589.73 528.31 L 592.13 523.08 L 594.01 517.67 L 595.39 512.08 L 596.26 506.34 L 596.64 500.44 L 596.52 494.42 L 595.93 488.29 L 594.88 482.06 L 593.38 475.75 L 591.44 469.38 L 589.10 462.96 L 586.36 456.50 L 583.25 450.04 L 579.80 443.58 L 576.03 437.14 L 571.97 430.73 L 567.64 424.38 L 563.08 418.10 L 558.31 411.89 L 553.36 405.79 L 548.27 399.79 L 543.06 393.92 L 537.77 388.18 L 532.43 382.59 L 527.07 377.16 L 521.72 371.89 L 516.41 366.80 L 511.17 361.89 L 506.02 357.17 L 501.01 352.65 L 496.15 348.33 L 491.47 344.21 L 486.99 340.30 L 482.74 336.59 L 478.75 333.10 L 475.02 329.82 L 471.59 326.74 L 468.46 323.86 L 465.66 321.19 L 463.19 318.72 L 461.08 316.43 L 459.32 314.33 L 457.93 312.41 L 456.91 310.66 L 456.28 309.07 L 456.02 307.63 L 456.14 306.34 L 456.64 305.18 L 457.52 304.14 L 458.76 303.21 L 460.38 302.38 L 462.34 301.63 L 464.66 300.97 L 467.30 300.36 L 470.27 299.80 L 473.54 299.28 L 477.10 298.78 L 480.94 298.30 L 485.02 297.81 L 489.35 297.31 L 493.89 296.79 L 498.62 296.23 L 503.53 295.62 L 508.58 294.96 L 513.77 294.22 L 519.06 293.41 L 524.43 292.51 L 529.86 291.51 L 535.33 290.41 L 540.82 289.19 L 546.30 287.86 L 551.74 286.40 L 557.14 284.81 L 562.47 283.08 L 567.70 281.22 L 572.82 279.22 L 577.82 277.07 L 582.66 274.78 L 587.35 272.34 L 591.85 269.76 L 596.17 267.03 L 600.28 264.16 L 604.17 261.15 L 607.84 258.00 L 611.28 254.72 L 614.47 251.31 L 617.42 247.78 L 620.11 244.12 L 622.55 240.35 L 624.74 236.48 L 626.66 232.50 L 628.33 228.44 L 629.75 224.29 L 630.92 220.06 L 631.84 215.76 L 632.53 211.40 L 632.99 206.99 L 633.22 202.54 L 633.24 198.05 L 633.06 193.54 L 632.68 189.01 L 632.13 184.47 L 631.41 179.93 L 630.54 175.40 L 629.53 170.88 L 628.40 166.39" stroke="#f4f1e8" stroke-width="22"/>
  </g>
</svg>