<svg xmlns="http://www.w3.org/2000/svg" width="1024" height="1024" viewBox="0 0 1024 1024">
<rect width="1024" height="1024" rx="225.28" fill="#ece2cf"/>
<g fill="none" stroke-linecap="round" stroke-linejoin="round">
<path d="M 337.9 839.7 Q 804.9 673.9 645.1 204.8" stroke="#1a1410" stroke-width="13"/><line x1="522.3" y1="928.9" x2="153.6" y2="750.5" stroke="#1a1410" stroke-width="6" stroke-opacity="0.7"/><line x1="153.6" y1="750.5" x2="496.4" y2="824.1" stroke="#1a1410" stroke-width="5" stroke-opacity="0.5"/><line x1="496.4" y1="824.1" x2="223.3" y2="764.6" stroke="#1a1410" stroke-width="6" stroke-opacity="0.7"/><line x1="223.3" y1="764.6" x2="418.5" y2="713.2" stroke="#1a1410" stroke-width="5" stroke-opacity="0.5"/><line x1="418.5" y1="713.2" x2="345.1" y2="784.8" stroke="#1a1410" stroke-width="6" stroke-opacity="0.7"/><line x1="345.1" y1="784.8" x2="336.4" y2="624.5" stroke="#1a1410" stroke-width="5" stroke-opacity="0.5"/><line x1="336.4" y1="624.5" x2="471.1" y2="782.8" stroke="#1a1410" stroke-width="6" stroke-opacity="0.7"/><line x1="471.1" y1="782.8" x2="294.7" y2="573.9" stroke="#1a1410" stroke-width="5" stroke-opacity="0.5"/><line x1="294.7" y1="573.9" x2="556.7" y2="742.7" stroke="#1a1410" stroke-width="6" stroke-opacity="0.7"/><line x1="556.7" y1="742.7" x2="315.4" y2="559.0" stroke="#1a1410" stroke-width="5" stroke-opacity="0.5"/><line x1="315.4" y1="559.0" x2="579.9" y2="666.9" stroke="#1a1410" stroke-width="6" stroke-opacity="0.7"/><line x1="579.9" y1="666.9" x2="391.1" y2="562.4" stroke="#1a1410" stroke-width="5" stroke-opacity="0.5"/><line x1="391.1" y1="562.4" x2="548.1" y2="572.8" stroke="#1a1410" stroke-width="6" stroke-opacity="0.7"/><line x1="548.1" y1="572.8" x2="491.5" y2="560.9" stroke="#1a1410" stroke-width="5" stroke-opacity="0.5"/><line x1="491.5" y1="560.9" x2="491.5" y2="483.5" stroke="#1a1410" stroke-width="6" stroke-opacity="0.7"/><line x1="491.5" y1="483.5" x2="579.8" y2="536.7" stroke="#1a1410" stroke-width="5" stroke-opacity="0.5"/><line x1="579.8" y1="536.7" x2="447.1" y2="417.1" stroke="#1a1410" stroke-width="6" stroke-opacity="0.7"/><line x1="447.1" y1="417.1" x2="629.6" y2="484.3" stroke="#1a1410" stroke-width="5" stroke-opacity="0.5"/><line x1="629.6" y1="484.3" x2="441.2" y2="378.8" stroke="#1a1410" stroke-width="6" stroke-opacity="0.7"/><line x1="441.2" y1="378.8" x2="635.7" y2="411.5" stroke="#1a1410" stroke-width="5" stroke-opacity="0.5"/><line x1="635.7" y1="411.5" x2="479.0" y2="360.9" stroke="#1a1410" stroke-width="6" stroke-opacity="0.7"/><line x1="479.0" y1="360.9" x2="612.8" y2="333.9" stroke="#1a1410" stroke-width="5" stroke-opacity="0.5"/><line x1="612.8" y1="333.9" x2="545.8" y2="347.8" stroke="#1a1410" stroke-width="6" stroke-opacity="0.7"/><line x1="545.8" y1="347.8" x2="586.2" y2="266.3" stroke="#1a1410" stroke-width="5" stroke-opacity="0.5"/><line x1="586.2" y1="266.3" x2="616.2" y2="324.7" stroke="#1a1410" stroke-width="6" stroke-opacity="0.7"/><line x1="616.2" y1="324.7" x2="578.1" y2="216.3" stroke="#1a1410" stroke-width="5" stroke-opacity="0.5"/><line x1="578.1" y1="216.3" x2="668.3" y2="284.0" stroke="#1a1410" stroke-width="6" stroke-opacity="0.7"/><line x1="668.3" y1="284.0" x2="597.2" y2="181.6" stroke="#1a1410" stroke-width="5" stroke-opacity="0.5"/><line x1="597.2" y1="181.6" x2="693.1" y2="228.0" stroke="#1a1410" stroke-width="6" stroke-opacity="0.7"/><line x1="112.6" y1="849.7" x2="604.2" y2="849.7" stroke="#1a1410" stroke-width="15"/><path d="M 522.27 928.88 L 496.38 824.10 L 418.49 713.17 L 336.44 624.49 L 294.71 573.89 L 315.40 559.01 L 391.09 562.41 L 491.52 560.95 L 579.80 536.71 L 629.64 484.31 L 635.65 411.52 L 612.77 333.88 L 586.23 266.33 L 578.08 216.34 L 597.19 181.61" stroke="#cf2e22" stroke-width="18"/><path d="M 153.57 750.48 L 223.35 764.56 L 345.12 784.80 L 471.05 782.78 L 556.67 742.68 L 579.86 666.86 L 548.07 572.77 L 491.52 483.53 L 447.12 417.07 L 441.18 378.78 L 479.05 360.87 L 545.81 347.82 L 616.24 324.66 L 668.27 283.95 L 693.05 227.99" stroke="#cf2e22" stroke-width="18"/>
</g></svg>