<svg xmlns="http://www.w3.org/2000/svg" width="36" height="36" viewBox="0 0 36 36"><g fill="none" stroke-linecap="round" stroke-linejoin="round"><path d="M 13.0 30.2 Q 28.8 22.1 21.6 5.8" stroke="#000" stroke-width="2.2"/><line x1="5.76" y1="30.64" x2="20.16" y2="30.64" stroke="#000" stroke-width="2.6"/><path d="M 19.75 32.64 L 19.76 32.24 L 19.73 31.84 L 19.66 31.42 L 19.55 31.00 L 19.40 30.57 L 19.22 30.13 L 19.01 29.69 L 18.77 29.24 L 18.49 28.80 L 18.19 28.36 L 17.87 27.92 L 17.53 27.48 L 17.17 27.04 L 16.79 26.62 L 16.40 26.20 L 16.01 25.79 L 15.61 25.39 L 15.20 25.00 L 14.80 24.62 L 14.40 24.26 L 14.01 23.91 L 13.62 23.57 L 13.25 23.26 L 12.89 22.95 L 12.55 22.66 L 12.23 22.39 L 11.93 22.14 L 11.66 21.90 L 11.41 21.68 L 11.18 21.48 L 10.99 21.29 L 10.83 21.12 L 10.69 20.96 L 10.59 20.82 L 10.52 20.70 L 10.49 20.59 L 10.49 20.49 L 10.52 20.40 L 10.58 20.32 L 10.68 20.26 L 10.81 20.20 L 10.97 20.15 L 11.16 20.11 L 11.38 20.08 L 11.62 20.05 L 11.89 20.02 L 12.19 20.00 L 12.51 19.97 L 12.84 19.95 L 13.20 19.92 L 13.57 19.90 L 13.96 19.87 L 14.36 19.83 L 14.76 19.79 L 15.18 19.74 L 15.60 19.69 L 16.02 19.63 L 16.44 19.55 L 16.86 19.47 L 17.28 19.38 L 17.69 19.28 L 18.09 19.17 L 18.48 19.04 L 18.86 18.91 L 19.22 18.76 L 19.57 18.60 L 19.91 18.42 L 20.22 18.24 L 20.51 18.04 L 20.78 17.83 L 21.04 17.61 L 21.26 17.37 L 21.47 17.13 L 21.65 16.88 L 21.81 16.61 L 21.94 16.34 L 22.06 16.06 L 22.14 15.77 L 22.21 15.47 L 22.25 15.17 L 22.27 14.86 L 22.27 14.54 L 22.25 14.22 L 22.21 13.90 L 22.15 13.58 L 22.08 13.25 L 21.99 12.93 L 21.89 12.60 L 21.77 12.28 L 21.65 11.96 L 21.51 11.64 L 21.37 11.32 L 21.22 11.01 L 21.07 10.70 L 20.92 10.40 L 20.76 10.10 L 20.61 9.81 L 20.45 9.52 L 20.30 9.25 L 20.16 8.98 L 20.02 8.71 L 19.89 8.46 L 19.77 8.21 L 19.66 7.97 L 19.56 7.74 L 19.47 7.52 L 19.39 7.30 L 19.33 7.10 L 19.28 6.90 L 19.25 6.70 L 19.23 6.52 L 19.22 6.34 L 19.23 6.17 L 19.26 6.00 L 19.30 5.84 L 19.35 5.68 L 19.42 5.53 L 19.50 5.38 L 19.59 5.23 L 19.70 5.09" stroke="#000" stroke-width="3.1"/></g><circle cx="28.8" cy="28.8" r="4.7" fill="#000"/></svg>