<svg xmlns="http://www.w3.org/2000/svg" width="1024" height="1024" viewBox="0 0 1024 1024"><rect width="1024" height="1024" fill="#ece2cf"/><g fill="none" stroke-linecap="round" stroke-linejoin="round"><line x1="528.6" y1="904.8" x2="167.8" y2="733.6" stroke="#1a1410" stroke-width="5" stroke-opacity="0.55"/><line x1="167.8" y1="733.6" x2="484.4" y2="774.3" stroke="#1a1410" stroke-width="4" stroke-opacity="0.385"/><line x1="484.4" y1="774.3" x2="264.0" y2="754.2" stroke="#1a1410" stroke-width="5" stroke-opacity="0.55"/><line x1="264.0" y1="754.2" x2="378.1" y2="647.5" stroke="#1a1410" stroke-width="4" stroke-opacity="0.385"/><line x1="378.1" y1="647.5" x2="422.5" y2="771.2" stroke="#1a1410" stroke-width="5" stroke-opacity="0.55"/><line x1="422.5" y1="771.2" x2="305.2" y2="571.1" stroke="#1a1410" stroke-width="4" stroke-opacity="0.385"/><line x1="305.2" y1="571.1" x2="547.5" y2="737.8" stroke="#1a1410" stroke-width="5" stroke-opacity="0.55"/><line x1="547.5" y1="737.8" x2="325.9" y2="551.8" stroke="#1a1410" stroke-width="4" stroke-opacity="0.385"/><line x1="325.9" y1="551.8" x2="578.9" y2="647.2" stroke="#1a1410" stroke-width="5" stroke-opacity="0.55"/><line x1="578.9" y1="647.2" x2="428.8" y2="557.1" stroke="#1a1410" stroke-width="4" stroke-opacity="0.385"/><line x1="428.8" y1="557.1" x2="528.2" y2="532.0" stroke="#1a1410" stroke-width="5" stroke-opacity="0.55"/><line x1="528.2" y1="532.0" x2="549.2" y2="543.4" stroke="#1a1410" stroke-width="4" stroke-opacity="0.385"/><line x1="549.2" y1="543.4" x2="459.9" y2="436.0" stroke="#1a1410" stroke-width="5" stroke-opacity="0.55"/><line x1="459.9" y1="436.0" x2="622.2" y2="487.1" stroke="#1a1410" stroke-width="4" stroke-opacity="0.385"/><line x1="622.2" y1="487.1" x2="439.0" y2="382.3" stroke="#1a1410" stroke-width="5" stroke-opacity="0.55"/><line x1="439.0" y1="382.3" x2="626.8" y2="398.1" stroke="#1a1410" stroke-width="4" stroke-opacity="0.385"/><line x1="626.8" y1="398.1" x2="486.6" y2="361.5" stroke="#1a1410" stroke-width="5" stroke-opacity="0.55"/><line x1="486.6" y1="361.5" x2="592.9" y2="306.3" stroke="#1a1410" stroke-width="4" stroke-opacity="0.385"/><line x1="592.9" y1="306.3" x2="572.6" y2="343.5" stroke="#1a1410" stroke-width="5" stroke-opacity="0.55"/><line x1="572.6" y1="343.5" x2="570.2" y2="236.8" stroke="#1a1410" stroke-width="4" stroke-opacity="0.385"/><line x1="570.2" y1="236.8" x2="647.5" y2="303.1" stroke="#1a1410" stroke-width="5" stroke-opacity="0.55"/><line x1="647.5" y1="303.1" x2="588.0" y2="192.8" stroke="#1a1410" stroke-width="4" stroke-opacity="0.385"/><line x1="588.0" y1="192.8" x2="681.8" y2="237.3" stroke="#1a1410" stroke-width="5" stroke-opacity="0.55"/><line x1="148.5" y1="831.2" x2="597.8" y2="831.2" stroke="#1a1410" stroke-width="15"/><path d="M 348.2 819.2 Q 798.2 662.7 634.9 215.0" stroke="#1a1410" stroke-width="13"/><path d="M 528.56 904.81 L 529.20 896.98 L 529.23 888.90 L 528.66 880.60 L 527.49 872.08 L 525.76 863.36 L 523.46 854.48 L 520.63 845.44 L 517.28 836.26 L 513.44 826.97 L 509.14 817.59 L 504.39 808.14 L 499.23 798.63 L 493.68 789.09 L 487.77 779.55 L 481.54 770.01 L 475.02 760.50 L 468.24 751.05 L 461.22 741.67 L 454.02 732.37 L 446.65 723.19 L 439.15 714.13 L 431.57 705.21 L 423.92 696.46 L 416.26 687.88 L 408.60 679.50 L 400.98 671.32 L 393.44 663.36 L 386.02 655.64 L 378.73 648.16 L 371.61 640.93 L 364.69 633.97 L 358.01 627.29 L 351.58 620.88 L 345.44 614.76 L 339.61 608.94 L 334.11 603.41 L 328.97 598.18 L 324.20 593.25 L 319.83 588.62 L 315.88 584.30 L 312.35 580.28 L 309.27 576.55 L 306.65 573.12 L 304.50 569.98 L 302.82 567.13 L 301.62 564.55 L 300.91 562.25 L 300.70 560.20 L 300.97 558.41 L 301.75 556.87 L 303.01 555.55 L 304.76 554.46 L 306.99 553.57 L 309.69 552.88 L 312.86 552.37 L 316.48 552.03 L 320.55 551.84 L 325.05 551.80 L 329.96 551.87 L 335.27 552.06 L 340.95 552.33 L 347.00 552.69 L 353.39 553.10 L 360.10 553.56 L 367.11 554.05 L 374.40 554.56 L 381.94 555.06 L 389.70 555.54 L 397.67 555.99 L 405.82 556.40 L 414.13 556.74 L 422.56 557.00 L 431.09 557.18 L 439.70 557.25 L 448.36 557.21 L 457.04 557.04 L 465.72 556.73 L 474.38 556.27 L 482.99 555.65 L 491.52 554.86 L 499.95 553.89 L 508.27 552.74 L 516.44 551.40 L 524.44 549.86 L 532.26 548.11 L 539.88 546.16 L 547.27 543.99 L 554.42 541.61 L 561.32 539.01 L 567.94 536.20 L 574.29 533.17 L 580.33 529.92 L 586.07 526.45 L 591.49 522.78 L 596.58 518.89 L 601.34 514.79 L 605.76 510.49 L 609.83 506.00 L 613.56 501.31 L 616.94 496.44 L 619.97 491.38 L 622.66 486.16 L 625.00 480.78 L 627.00 475.25 L 628.66 469.56 L 630.00 463.75 L 631.01 457.81 L 631.71 451.76 L 632.10 445.60 L 632.20 439.35 L 632.01 433.01 L 631.56 426.61 L 630.85 420.15 L 629.90 413.63 L 628.72 407.09 L 627.32 400.51 L 625.74 393.92 L 623.97 387.33 L 622.04 380.74 L 619.96 374.17 L 617.76 367.63 L 615.45 361.12 L 613.05 354.67 L 610.57 348.27 L 608.04 341.94 L 605.46 335.68 L 602.87 329.51 L 600.28 323.42 L 597.70 317.43 L 595.15 311.55 L 592.65 305.78 L 590.22 300.12 L 587.86 294.59 L 585.59 289.18 L 583.44 283.89 L 581.40 278.74 L 579.50 273.73 L 577.74 268.85 L 576.14 264.11 L 574.71 259.50 L 573.45 255.04 L 572.37 250.71 L 571.48 246.52 L 570.79 242.46 L 570.31 238.54 L 570.03 234.75 L 569.96 231.08 L 570.10 227.54 L 570.45 224.12 L 571.02 220.81 L 571.81 217.61 L 572.81 214.52 L 574.01 211.52 L 575.43 208.62 L 577.04 205.80 L 578.86 203.07 L 580.87 200.40 L 583.06 197.81 L 585.43 195.27 L 587.98 192.78" stroke="#cf2e22" stroke-width="19"/><path d="M 167.76 733.59 L 170.70 733.87 L 174.26 734.39 L 178.41 735.15 L 183.16 736.12 L 188.48 737.28 L 194.36 738.61 L 200.78 740.10 L 207.71 741.72 L 215.13 743.46 L 223.02 745.29 L 231.36 747.19 L 240.10 749.15 L 249.24 751.13 L 258.72 753.13 L 268.54 755.11 L 278.64 757.06 L 289.01 758.97 L 299.61 760.80 L 310.40 762.54 L 321.35 764.17 L 332.43 765.68 L 343.60 767.04 L 354.83 768.24 L 366.08 769.27 L 377.32 770.10 L 388.52 770.73 L 399.64 771.13 L 410.66 771.30 L 421.53 771.23 L 432.23 770.91 L 442.73 770.31 L 453.00 769.45 L 463.01 768.30 L 472.74 766.87 L 482.15 765.14 L 491.23 763.12 L 499.96 760.80 L 508.31 758.17 L 516.26 755.25 L 523.80 752.02 L 530.91 748.49 L 537.57 744.66 L 543.78 740.54 L 549.52 736.13 L 554.78 731.43 L 559.56 726.45 L 563.86 721.21 L 567.66 715.70 L 570.96 709.94 L 573.77 703.93 L 576.10 697.70 L 577.93 691.24 L 579.29 684.57 L 580.17 677.71 L 580.58 670.67 L 580.54 663.46 L 580.06 656.09 L 579.14 648.59 L 577.82 640.96 L 576.09 633.22 L 573.99 625.39 L 571.53 617.49 L 568.72 609.52 L 565.59 601.51 L 562.17 593.47 L 558.46 585.41 L 554.51 577.36 L 550.33 569.32 L 545.94 561.32 L 541.38 553.36 L 536.66 545.47 L 531.81 537.65 L 526.86 529.92 L 521.84 522.30 L 516.76 514.79 L 511.66 507.41 L 506.56 500.17 L 501.49 493.08 L 496.47 486.14 L 491.52 479.38 L 486.67 472.79 L 481.94 466.39 L 477.36 460.19 L 472.94 454.18 L 468.70 448.37 L 464.67 442.77 L 460.86 437.38 L 457.29 432.21 L 453.98 427.26 L 450.94 422.52 L 448.18 418.00 L 445.72 413.70 L 443.56 409.61 L 441.73 405.74 L 440.22 402.07 L 439.05 398.62 L 438.21 395.36 L 437.72 392.31 L 437.58 389.44 L 437.78 386.76 L 438.33 384.26 L 439.23 381.93 L 440.47 379.76 L 442.06 377.75 L 443.98 375.88 L 446.23 374.14 L 448.80 372.53 L 451.69 371.03 L 454.88 369.63 L 458.36 368.33 L 462.13 367.11 L 466.17 365.97 L 470.46 364.88 L 475.00 363.84 L 479.76 362.83 L 484.74 361.86 L 489.91 360.90 L 495.26 359.94 L 500.78 358.97 L 506.44 357.99 L 512.22 356.98 L 518.12 355.93 L 524.11 354.84 L 530.17 353.68 L 536.28 352.46 L 542.44 351.17 L 548.61 349.79 L 554.79 348.32 L 560.95 346.76 L 567.09 345.09 L 573.17 343.31 L 579.19 341.41 L 585.13 339.40 L 590.98 337.25 L 596.72 334.99 L 602.34 332.58 L 607.83 330.05 L 613.17 327.38 L 618.36 324.57 L 623.37 321.62 L 628.22 318.53 L 632.88 315.31 L 637.35 311.95 L 641.62 308.45 L 645.69 304.82 L 649.56 301.06 L 653.21 297.18 L 656.65 293.17 L 659.88 289.04 L 662.90 284.79 L 665.70 280.44 L 668.28 275.98 L 670.66 271.42 L 672.83 266.77 L 674.80 262.04 L 676.56 257.22 L 678.14 252.33 L 679.53 247.38 L 680.74 242.36 L 681.78 237.30" stroke="#cf2e22" stroke-width="19"/></g></svg>